<?xml version="1.0" encoding="UTF-8" standalone="no"?>
<svg
   width="100%"
   height="100%"
   viewBox="0 0 122 130"
   version="1.1"
   xml:space="preserve"
   style="fill-rule:evenodd;clip-rule:evenodd;stroke-linejoin:round;stroke-miterlimit:2;"
   id="svg2"
   sodipodi:docname="ink_03.svg"
   inkscape:version="1.3.2 (091e20e, 2023-11-25)"
   xmlns:inkscape="http://www.inkscape.org/namespaces/inkscape"
   xmlns:sodipodi="http://sodipodi.sourceforge.net/DTD/sodipodi-0.dtd"
   xmlns="http://www.w3.org/2000/svg"
   xmlns:svg="http://www.w3.org/2000/svg"><defs
   id="defs2" /><sodipodi:namedview
   id="namedview2"
   pagecolor="#ffffff"
   bordercolor="#000000"
   borderopacity="0.25"
   inkscape:showpageshadow="2"
   inkscape:pageopacity="0.0"
   inkscape:pagecheckerboard="0"
   inkscape:deskcolor="#d1d1d1"
   inkscape:zoom="1.8153846"
   inkscape:cx="60.868645"
   inkscape:cy="65.000001"
   inkscape:window-width="1472"
   inkscape:window-height="449"
   inkscape:window-x="0"
   inkscape:window-y="37"
   inkscape:window-maximized="0"
   inkscape:current-layer="svg2" />
    <g
   transform="matrix(1,0,0,1,-88,-304)"
   id="g2"
   style="fill:#2b1100">
        <g
   transform="matrix(1,0,0,1,22.2227,87.244)"
   id="g1"
   style="fill:#2b1100">
            <path
   d="M119.389,339.721C121.885,335.958 120.36,330.309 119.389,326.722C119.133,325.778 117.064,317.947 117.064,312.876C117.064,307.805 117.451,299.676 120.265,297.957C122.96,296.311 126.259,295.985 129.639,297.957C133.02,299.929 132.872,302.672 133.436,305.348C133.999,308.024 135.543,309.995 138.193,309.037C140.792,308.097 140.869,304.041 139.742,302.21C138.615,300.379 137.408,297.6 138.193,296.114C139.352,293.918 140.584,292.46 145.235,291.466C147.374,291.009 153.123,293.156 154.391,298.65C155.659,304.143 156.884,305.83 158.68,307.537C162.763,311.419 167.952,311.798 172.409,309.037C176.239,306.665 178.471,301.18 174.674,296.114C171.21,291.492 167.35,290.916 163.828,290.775C160.307,290.634 156.926,289.353 155.518,287.24C154.109,285.127 154.25,281.606 157.208,279.634C160.166,277.662 161.44,276.93 165.247,277.957C167.172,278.477 168.649,281.781 174.674,282.748C179.411,283.508 187.36,285.174 187.641,277.957C187.893,271.513 184.921,270.307 181.566,269.07C178.523,267.948 170.59,268.788 167.209,269.07C163.828,269.352 161.575,268.366 161.716,265.548C161.856,262.731 161.26,259.652 163.828,258.453C166.422,257.243 170.726,258.365 169.892,254.562C169.101,250.953 166.072,248.537 161.716,250.702C159.346,251.88 155.19,250.938 153.641,249.952C152.092,248.966 147.61,244.702 149.159,241.462C150.708,238.222 155.073,233.978 155.518,231.039C156.117,227.08 155.699,222.052 149.159,220.402C142.493,218.72 138.897,224.982 139.742,231.039C140.587,237.095 142.277,242.166 139.742,243.575C137.207,244.983 130.727,244.561 129.178,243.575C127.628,242.589 125.488,240.194 122.671,241.462C119.854,242.73 119.177,245.406 117.064,246.11C114.951,246.814 110.444,247.941 106.922,243.575C103.401,239.208 102.923,234.211 101.852,231.039C100.122,225.92 93.565,219.315 88.072,222.132C82.578,224.95 85.246,229.27 87.006,232.423C89.989,237.769 94.697,240.878 96.558,243.575C98.082,245.783 98.671,250.437 98.588,251.452C98.312,254.825 96.031,255.938 93.118,256.956C89.571,258.197 84.34,254.747 81.241,254.042C78.142,253.338 67.498,252.343 66.661,257.504C65.784,262.914 69.24,263.359 71.99,263.576C77.635,264.022 85.248,261.812 89.456,262.311C94.58,262.918 92.61,267.246 95.231,269.07C97.107,270.375 97.439,272.63 97.203,275.127C96.91,278.231 93.006,279.099 89.456,280.902C86.432,282.438 81.287,282.592 76.92,285.268C72.553,287.945 71.258,295.14 74.92,297.957C78.582,300.774 82.73,300.925 88.072,297.957C91.875,295.844 92.892,293.073 95.231,288.733C97.175,285.127 97.908,283.888 101.852,283.888C105.796,283.888 108.049,285.663 108.387,288.733C108.657,291.179 107.768,292.311 106.922,298.65C106.077,304.988 97.339,318.437 97.203,327.471C97.061,336.945 99.163,341.962 103.734,344.747C108.278,347.516 113.708,348.286 119.389,339.721ZM139.761,313.177C139.761,313.177 146.4,318.478 148.707,326.662C151.014,334.846 149.849,337.585 147.219,338.326C144.588,339.067 141.481,337.532 139.174,329.348C136.868,321.164 139.761,313.177 139.761,313.177ZM178.329,312.874C180.151,312.874 181.631,314.353 181.631,316.175C181.631,317.997 180.151,319.477 178.329,319.477C176.507,319.477 175.028,317.997 175.028,316.175C175.028,314.353 176.507,312.874 178.329,312.874ZM78.189,303.795C79.708,303.795 80.94,305.028 80.94,306.546C80.94,308.065 79.708,309.297 78.189,309.297C76.671,309.297 75.438,308.065 75.438,306.546C75.438,305.028 76.671,303.795 78.189,303.795ZM179.621,242.632C182.969,241.399 186.157,241.669 186.734,243.236C187.312,244.804 185.062,247.078 181.714,248.311C178.366,249.545 175.179,249.275 174.601,247.707C174.024,246.14 176.273,243.866 179.621,242.632ZM121.344,216.914C123.231,216.711 125.212,220.714 125.764,225.846C126.316,230.979 123.345,235.514 123.345,235.514C123.345,235.514 119.477,231.715 118.925,226.582C118.373,221.449 119.457,217.117 121.344,216.914ZM166.843,225.389C168.096,225.389 169.113,226.406 169.113,227.659C169.113,228.911 168.096,229.928 166.843,229.928C165.591,229.928 164.574,228.911 164.574,227.659C164.574,226.406 165.591,225.389 166.843,225.389Z"
   style="fill:#2b1100"
   id="path1" />
        </g>
    </g>
</svg>
